<?xml version="1.0" encoding="UTF-8"?><svg id="a" xmlns="http://www.w3.org/2000/svg" viewBox="0 0 64 64"><defs><style>.b{fill:#84a59d;}.c{fill:#f5cac3;}.d{fill:#658078;}</style></defs><rect class="c" x=".41" y=".3" width="63.59" height="63.59"/><polyline class="b" points="28.4 16.6 22.73 16.6 7.56 42.88 10.3 47.6 30.01 47.6 27.11 42.56 13.32 42.63 25.57 21.42"/><polygon class="b" points="37.58 24.62 39.43 21.41 50.29 21.41 53.06 16.6 32.95 16.6 37.58 24.62"/><polyline class="b" points="40.69 47.6 46.3 47.6 55.98 30.82 41.16 30.82 43.94 35.64 47.39 35.64 43.39 42.57"/><polygon class="d" points="13.32 42.63 10.45 47.6 30.05 47.6 27.11 42.56 13.32 42.63"/><polygon class="d" points="41.16 30.82 50.17 30.82 47.39 35.64 43.94 35.64 41.16 30.82"/><polygon class="d" points="39.45 21.41 50.29 21.41 53.06 16.6 42.21 16.6 39.45 21.41"/><path class="d" d="M30.18,28.37c.12.03.24.01.37-.06s.21-.17.24-.29c.03-.12,0-.24-.07-.37l-.14-.25-.83.48.14.25c.07.13.17.21.28.24Z"/><polygon class="d" points="30.53 30.02 30.75 30.39 30.94 30 30.85 29.84 30.53 30.02"/><path class="d" d="M28.87,23.35l.33.58-1.22,1.66v.02s1.65-.94,1.65-.94l.28.49-.41,1.12.8-.46.33.58-1.63.94.09.16,1.63-.94.5.86c.11.19.18.39.19.58.01.19-.02.36-.1.52-.08.16-.22.29-.39.39-.18.1-.36.15-.54.14-.17,0-.33-.06-.47-.16l.31.53,1.63-.94.48.84c.09.16.15.32.16.47.02.15,0,.29-.07.41-.06.12-.16.22-.29.3-.13.07-.25.11-.38.1-.13,0-.25-.04-.36-.12l-.25.52.08.14,1.63-.93.75,1.31.24-.42-.38-.15-.22-.38.59.1.13.22,1.36-2.36-6.9-11.95-2.83,4.81,1.25,2.16,2.05-.23Z"/><path class="d" d="M31.58,29.95c.06.02.12.01.19-.03.06-.04.1-.09.12-.15.01-.06,0-.13-.05-.21l-.12-.22-.41.24.12.22c.05.08.1.13.16.15Z"/><polygon class="d" points="28.65 26.75 29 25.79 28.32 26.18 28.65 26.75"/><polygon class="d" points="27.91 24.05 28.11 24.39 28.45 23.97 27.91 24.05"/><polygon class="d" points="33.2 31.91 32.71 31.07 32.51 31.19 32.93 31.93 32.51 32.17 32.08 31.43 31.85 31.56 32.35 32.44 32.04 32.62 32.5 33.42 33.45 31.76 33.2 31.91"/><polygon class="d" points="27.16 24.17 27.63 24.98 27.78 24.8 27.39 24.14 27.16 24.17"/><polygon class="d" points="37.6 42.26 37.88 41.74 37.45 41.99 37.6 42.26"/><path class="d" d="M36.79,40.49c.07.04.15.06.23.05.09,0,.17-.03.26-.08.09-.05.16-.11.2-.19.05-.07.07-.15.07-.23,0-.08-.02-.16-.06-.23-.04-.07-.1-.13-.17-.17-.07-.04-.15-.06-.23-.05-.09,0-.17.03-.26.08s-.16.11-.2.19c-.05.07-.07.15-.07.23,0,.08.02.16.06.23.04.07.1.13.17.17Z"/><path class="d" d="M38,33.23l-2.28,3.94c.09-.03.19-.04.28-.04.19,0,.36.06.53.17.16.11.3.25.41.44.1.17.16.34.18.51.02.17,0,.33-.06.48l-.55-.19c.07-.18.05-.35-.03-.5-.07-.13-.17-.21-.3-.24-.12-.03-.25,0-.39.07-.13.08-.22.17-.25.3-.04.12-.02.25.05.37.04.08.1.14.17.19l.44-.25.3.51-.59.34.14.24s.03-.06.04-.09c.09-.17.22-.3.4-.4.17-.1.36-.15.54-.14.19,0,.36.06.53.16.16.1.3.25.41.44.11.19.17.38.17.58,0,.2-.03.38-.12.54-.09.17-.22.3-.4.4-.18.1-.36.15-.54.14-.03,0-.07,0-.1,0l.15.27,1.42-.82.28.48-.6,1.11,1.25.02.28.49-1.41.82.09.16,1.41-.81.82,1.42-.44.26-.48-.84-.2.12.43.74-.42.24-.43-.74-.23.13.5.87-.11.06.05.08.29-.03c0,.11.01.23.04.35s.07.23.13.32c.05.08.09.14.12.16s.07.03.1.01c.04-.02.05-.06.04-.12,0-.06-.03-.14-.07-.26-.05-.15-.08-.28-.1-.39-.02-.11-.01-.22.02-.33.04-.11.12-.2.24-.27.11-.06.23-.09.35-.08.13,0,.25.06.37.15.12.09.23.23.33.4.07.12.12.25.16.38.04.13.06.25.06.37l-.53.07c-.01-.22-.06-.41-.15-.56-.09-.15-.17-.21-.24-.16-.04.02-.05.06-.04.11,0,.06.03.14.07.25.05.15.09.28.11.39.02.11.01.22-.02.33-.03.11-.12.2-.24.27-.08.04-.15.07-.24.08l.52.91,2.71-5.03-5.39-9.34Z"/><polygon class="d" points="38.5 42.75 37.88 42.74 38.04 43.02 38.5 42.75"/></svg>